<svg xmlns="http://www.w3.org/2000/svg" width="43" height="43" viewBox="0 0 43 43"><defs><style>.a{fill:#0a315a;}.b{fill:#fff;}</style></defs><g transform="translate(-79 -277.89)"><path class="a" d="M21.5,0A21.5,21.5,0,1,1,0,21.5,21.5,21.5,0,0,1,21.5,0Z" transform="translate(79 277.89)"/><path class="b" d="M377.814,347.9v-2.808h-1.4V347.9H373.6v1.4h2.808v2.808h1.4V349.3h2.809v-1.4Zm0,0" transform="translate(-266.423 -48.458)"/><path class="b" d="M99.021,299.44v2.775h3.972a4.193,4.193,0,1,1-1.244-4.545l1.845-2.092a6.912,6.912,0,1,0,2.447,5.25V299.44Zm0,0"/></g></svg>